<svg xmlns="http://www.w3.org/2000/svg" viewBox="0 0 64 64" fill="none">
  <circle cx="32" cy="32" r="29" stroke="#1F8C61" stroke-width="3.5"/>
  <g opacity="0.55">
    <line x1="32" y1="6" x2="32" y2="11" stroke="#1F8C61" stroke-width="2" stroke-linecap="round"/>
    <line x1="32" y1="53" x2="32" y2="58" stroke="#1F8C61" stroke-width="2" stroke-linecap="round"/>
    <line x1="6" y1="32" x2="11" y2="32" stroke="#1F8C61" stroke-width="2" stroke-linecap="round"/>
    <line x1="53" y1="32" x2="58" y2="32" stroke="#1F8C61" stroke-width="2" stroke-linecap="round"/>
  </g>
  <path d="M20 24C20 20.6863 22.6863 18 26 18H38C41.3137 18 44 20.6863 44 24V32C44 35.3137 41.3137 38 38 38H29L23 43V38H26C22.6863 38 20 35.3137 20 32V24Z" fill="#3DBE8A"/>
  <circle cx="27.5" cy="28" r="1.8" fill="#F0FBF7"/>
  <circle cx="32" cy="28" r="1.8" fill="#F0FBF7"/>
  <circle cx="36.5" cy="28" r="1.8" fill="#F0FBF7"/>
</svg>
